<svg width="22" height="23" viewBox="0 0 22 23" fill="none" xmlns="http://www.w3.org/2000/svg">
<g clip-path="url(#clip0)">
<path d="M15.6845 2.29919H6.66405C4.17311 2.29919 2.15381 4.37605 2.15381 6.93798V16.2155C2.15381 18.7775 4.17311 20.8543 6.66405 20.8543H15.6845C18.1755 20.8543 20.1948 18.7775 20.1948 16.2155V6.93798C20.1948 4.37605 18.1755 2.29919 15.6845 2.29919Z" stroke="black" stroke-width="2" stroke-linecap="round" stroke-linejoin="round"/>
<path d="M14.7823 10.9922C14.8937 11.7644 14.7654 12.5529 14.4159 13.2458C14.0664 13.9386 13.5133 14.5005 12.8354 14.8514C12.1575 15.2023 11.3892 15.3245 10.6399 15.2005C9.89065 15.0765 9.19845 14.7126 8.6618 14.1607C8.12515 13.6087 7.77138 12.8968 7.65081 12.1262C7.53024 11.3555 7.649 10.5654 7.99021 9.86815C8.33142 9.17092 8.8777 8.6021 9.55135 8.2426C10.225 7.88309 10.9917 7.75121 11.7424 7.86571C12.5082 7.9825 13.2172 8.3495 13.7646 8.9125C14.312 9.4755 14.6688 10.2047 14.7823 10.9922Z" stroke="black" stroke-width="2" stroke-linecap="round" stroke-linejoin="round"/>
<path d="M16.1355 6.47406H16.1455" stroke="black" stroke-width="2" stroke-linecap="round" stroke-linejoin="round"/>
</g>
<defs>
<clipPath id="clip0">
<rect width="21.6492" height="22.2662" fill="white" transform="translate(0.349609 0.443665)"/>
</clipPath>
</defs>
</svg>
