<svg width="21" height="21" viewBox="0 0 21 21" fill="none" xmlns="http://www.w3.org/2000/svg">
<path fill-rule="evenodd" clip-rule="evenodd" d="M8.18314 6.36024C9.04644 5.8999 10.0315 5.72999 10.9972 5.87715C11.982 6.02723 12.8894 6.49825 13.587 7.21514C14.2842 7.93162 14.7352 8.85572 14.8786 9.84946C15.0192 10.8236 14.8576 11.8195 14.4148 12.6965C13.9718 13.5739 13.2683 14.2904 12.3998 14.7397C11.5309 15.1891 10.5437 15.3465 9.57999 15.1871C8.61645 15.0278 7.73058 14.5609 7.04671 13.8581C6.3632 13.1557 5.91589 12.2533 5.76363 11.2809C5.61138 10.3086 5.761 9.31076 6.1932 8.42833C6.62555 7.54558 7.32028 6.82035 8.18314 6.36024ZM10.6959 7.85432C10.1589 7.77249 9.60928 7.86635 9.12419 8.12502C8.63866 8.38392 8.23996 8.79632 7.98934 9.30803C7.73856 9.82006 7.65046 10.4025 7.73955 10.9715C7.82862 11.5403 8.08943 12.0619 8.48009 12.4633C8.87038 12.8644 9.37002 13.1252 9.90629 13.2139C10.4424 13.3026 10.9929 13.2156 11.4809 12.9632C11.9693 12.7106 12.3728 12.3034 12.6295 11.7951C12.8863 11.2864 12.9814 10.7052 12.8991 10.1351C12.8152 9.55364 12.5521 9.01945 12.1536 8.60992C11.7555 8.2008 11.2438 7.93782 10.6959 7.85432Z" fill="black"/>
<path d="M15.2431 4.4741C14.6908 4.4741 14.2431 4.92181 14.2431 5.4741C14.2431 6.02638 14.6908 6.4741 15.2431 6.4741H15.2531C15.8053 6.4741 16.2531 6.02638 16.2531 5.4741C16.2531 4.92181 15.8053 4.4741 15.2531 4.4741H15.2431Z" fill="black"/>
<path fill-rule="evenodd" clip-rule="evenodd" d="M0.25 5.93798C0.25 2.84967 2.6931 0.299194 5.76389 0.299194H14.7917C17.8625 0.299194 20.3056 2.84967 20.3056 5.93798V15.2155C20.3056 18.3039 17.8625 20.8543 14.7917 20.8543H5.76389C2.6931 20.8543 0.25 18.3039 0.25 15.2155V5.93798ZM5.76389 2.29919C3.84877 2.29919 2.25 3.90243 2.25 5.93798V15.2155C2.25 17.2511 3.84877 18.8543 5.76389 18.8543H14.7917C16.7068 18.8543 18.3056 17.2511 18.3056 15.2155V5.93798C18.3056 3.90243 16.7068 2.29919 14.7917 2.29919H5.76389Z" fill="black"/>
</svg>
