<svg width="34" height="34" viewBox="0 0 34 34" fill="none" xmlns="http://www.w3.org/2000/svg">
<path d="M20.3616 22.0128C20.1406 22.0128 19.9286 21.925 19.7723 21.7687C19.6161 21.6125 19.5283 21.4005 19.5283 21.1795C19.5283 20.9585 19.6161 20.7465 19.7723 20.5902C19.9286 20.4339 20.1406 20.3461 20.3616 20.3461H22.0283C22.2493 20.3461 22.4612 20.4339 22.6175 20.5902C22.7738 20.7465 22.8616 20.9585 22.8616 21.1795C22.8616 21.4005 22.7738 21.6125 22.6175 21.7687C22.4612 21.925 22.2493 22.0128 22.0283 22.0128H20.3616ZM20.3616 22.0128C18.1515 22.0128 16.0318 21.1348 14.469 19.572C12.9062 18.0092 12.0283 15.8896 12.0283 13.6795M12.0283 13.6795V12.0128C12.0283 11.7918 12.1161 11.5798 12.2723 11.4236C12.4286 11.2673 12.6406 11.1795 12.8616 11.1795C13.0826 11.1795 13.2946 11.2673 13.4508 11.4236C13.6071 11.5798 13.6949 11.7918 13.6949 12.0128V13.6795C13.6949 13.9005 13.6071 14.1125 13.4508 14.2687C13.2946 14.425 13.0826 14.5128 12.8616 14.5128C12.6406 14.5128 12.4286 14.425 12.2723 14.2687C12.1161 14.1125 12.0283 13.9005 12.0283 13.6795ZM2.02814 32.0128L8.36148 29.2628C11.348 31.3667 14.9998 32.3084 18.6313 31.9111C22.2629 31.5138 25.6246 29.8048 28.0856 27.105C30.5466 24.4051 31.9378 20.8999 31.998 17.2472C32.0582 13.5945 30.7833 10.0453 28.4125 7.26584C26.0418 4.48635 22.7382 2.66758 19.1217 2.15085C15.5052 1.63412 11.8245 2.45495 8.7702 4.45931C5.71593 6.46366 3.49811 9.51374 2.53296 13.0372C1.56781 16.5606 1.92168 20.3151 3.52814 23.5961L2.02814 32.0128Z" stroke="#0F3057" stroke-width="3.33333" stroke-linecap="round" stroke-linejoin="round"/>
</svg>
