<svg width="23" height="17" viewBox="0 0 23 17" fill="none" xmlns="http://www.w3.org/2000/svg">
<path fill-rule="evenodd" clip-rule="evenodd" d="M9.6539 4.3032C9.34463 4.12245 8.96231 4.12093 8.65162 4.29922C8.34092 4.4775 8.14932 4.80835 8.14932 5.16656V11.2341C8.14932 11.5923 8.34092 11.9232 8.65162 12.1014C8.96231 12.2797 9.34463 12.2782 9.6539 12.0975L14.8449 9.0637C15.1517 8.88438 15.3403 8.55571 15.3403 8.20033C15.3403 7.84496 15.1517 7.51628 14.8449 7.33696L9.6539 4.3032ZM10.1493 9.49141V6.90925L12.3584 8.20033L10.1493 9.49141Z" fill="black"/>
<path fill-rule="evenodd" clip-rule="evenodd" d="M11.1797 0.0101929L11.1074 0.0102996C11.0608 0.0104057 10.9924 0.0106169 10.9051 0.011038C10.7305 0.0118802 10.4797 0.013562 10.1741 0.0169216C9.56334 0.0236362 8.73157 0.0370737 7.84968 0.0640048C6.96943 0.0908858 6.031 0.131449 5.2094 0.193033C4.41641 0.252473 3.64525 0.336862 3.15095 0.472717L3.13678 0.476724C2.53853 0.650661 1.99874 0.982859 1.57052 1.43654C1.14247 1.89004 0.840779 2.44899 0.692976 3.05583C0.687833 3.07695 0.68338 3.09823 0.679623 3.11964C0.385456 4.79599 0.241417 6.49643 0.249281 8.19965C0.239123 9.91572 0.383174 11.6291 0.67963 13.3181C0.685197 13.3498 0.692293 13.3813 0.700892 13.4123C0.863905 14.0005 1.17256 14.5385 1.59983 14.9731C2.02727 15.4078 2.55913 15.7244 3.14527 15.8892L3.15095 15.8908C3.64525 16.0266 4.41641 16.111 5.2094 16.1705C6.031 16.2321 6.96943 16.2726 7.84968 16.2995C8.73157 16.3264 9.56334 16.3399 10.1741 16.3466C10.4797 16.3499 10.7305 16.3516 10.9051 16.3525C10.9924 16.3529 11.0608 16.3531 11.1074 16.3532L11.1797 16.3533L11.2523 16.3532C11.2989 16.3531 11.3673 16.3529 11.4546 16.3525C11.6292 16.3516 11.88 16.3499 12.1856 16.3466C12.7964 16.3399 13.6281 16.3264 14.51 16.2995C15.3903 16.2726 16.3287 16.2321 17.1503 16.1705C17.9433 16.111 18.7145 16.0266 19.2088 15.8908L19.2229 15.8868C19.8212 15.7128 20.361 15.3806 20.7892 14.927C21.2172 14.4735 21.5189 13.9145 21.6667 13.3077C21.6719 13.2865 21.6763 13.2653 21.6801 13.2438C21.972 11.5799 22.1161 9.89216 22.1104 8.20153C22.1206 6.48528 21.9766 4.77167 21.6801 3.08248L20.6951 3.25536L21.6667 3.01872C21.5189 2.41187 21.2172 1.85293 20.7892 1.39943C20.361 0.945749 19.8212 0.613551 19.2229 0.439614C19.2111 0.436163 19.1991 0.432932 19.1871 0.429924C18.7009 0.307902 17.9371 0.231207 17.1438 0.176914C16.324 0.120807 15.387 0.0838156 14.5074 0.0592886C13.6262 0.0347198 12.795 0.0224587 12.1846 0.0163317C11.8792 0.0132662 11.6287 0.0117318 11.4542 0.0109636L11.2521 0.0102901L11.1797 0.0101929ZM11.1799 2.01019L11.2479 2.01029L11.4454 2.01094C11.6166 2.0117 11.8634 2.01321 12.1646 2.01623C12.7673 2.02228 13.5859 2.03437 14.4516 2.05851C15.3189 2.08269 16.2258 2.11876 17.0073 2.17225C17.7986 2.2264 18.3855 2.29411 18.682 2.36527C18.927 2.43982 19.1523 2.57891 19.3348 2.77225C19.5153 2.96353 19.6475 3.20126 19.7164 3.46386C19.9882 5.02484 20.1201 6.60826 20.1104 8.1942L20.1104 8.2038C20.1159 9.76584 19.984 11.3251 19.7164 12.8625C19.6475 13.1251 19.5153 13.3629 19.3348 13.5541C19.1497 13.7502 18.9206 13.8905 18.6716 13.9642C18.3868 14.0411 17.8023 14.116 17.0008 14.1761C16.2211 14.2345 15.3156 14.274 14.449 14.3004C13.584 14.3268 12.7659 14.3401 12.1636 14.3467C11.8626 14.35 11.616 14.3517 11.4449 14.3525L11.2477 14.3532L11.1797 14.3533L11.112 14.3532L10.9148 14.3525C10.7437 14.3517 10.4971 14.35 10.1961 14.3467C9.59377 14.3401 8.77571 14.3268 7.91072 14.3004C7.0441 14.274 6.1386 14.2345 5.3589 14.1761C4.55328 14.1157 3.96699 14.0403 3.68381 13.9631C3.43835 13.8935 3.21141 13.7595 3.02596 13.5709C2.84938 13.3913 2.71625 13.168 2.6403 12.9195C2.37052 11.3641 2.23962 9.78652 2.24928 8.20642L2.24928 8.1955C2.24172 6.62151 2.37361 5.05017 2.64329 3.50096C2.71221 3.23836 2.8444 3.00064 3.02495 2.80936C3.21002 2.61329 3.43912 2.47301 3.68814 2.39926C3.97293 2.32241 4.55736 2.24752 5.3589 2.18744C6.1386 2.12899 7.0441 2.08954 7.91072 2.06307C8.77571 2.03666 9.59377 2.02342 10.1961 2.0168C10.4971 2.01349 10.7437 2.01184 10.9148 2.01101C11.0003 2.0106 11.0669 2.0104 11.112 2.01029L11.1799 2.01019Z" fill="black"/>
</svg>
