<svg width="82" height="83" viewBox="0 0 82 83" fill="none" xmlns="http://www.w3.org/2000/svg">
<path d="M45.5117 24.3112L45.512 24.3108C46.544 23.2612 47.7675 22.4303 49.1117 21.8641C50.4559 21.2979 51.8955 21.0069 53.3485 21.0069C54.8015 21.0069 56.2411 21.2979 57.5853 21.8641C58.9295 22.4303 60.153 23.2612 61.185 24.3108L61.1857 24.3115C62.2182 25.3607 63.039 26.6082 63.5996 27.9836C64.1602 29.359 64.4492 30.8344 64.4492 32.3252C64.4492 33.8159 64.1602 35.2913 63.5996 36.6667C63.039 38.0421 62.2182 39.2896 61.1857 40.3388L61.1853 40.3391L58.6613 42.9051L41.5618 60.2886L24.4623 42.9051L21.9383 40.3391C19.853 38.2192 18.6758 35.3371 18.6758 32.3252C18.6758 29.3132 19.853 26.4311 21.9383 24.3112C24.0225 22.1924 26.8422 21.0082 29.7752 21.0082C32.7082 21.0082 35.5278 22.1924 37.612 24.3112L40.136 26.8771C40.512 27.2593 41.0257 27.4746 41.5618 27.4746C42.098 27.4746 42.6117 27.2593 42.9876 26.8771L45.5117 24.3112Z" stroke="#00587A" stroke-width="4" stroke-linecap="round" stroke-linejoin="round"/>
</svg>
