<svg width="82" height="85" viewBox="0 0 82 85" fill="none" xmlns="http://www.w3.org/2000/svg">
<path d="M31.807 31.8314L32.6522 35.2125H47.8316L45.9647 31.8314H31.807Z" fill="#E7E7DE"/>
<path d="M56.7671 22.6058C57.3194 22.6058 57.7671 23.0535 57.7671 23.6058V28.9135H63.0746C63.6269 28.9135 64.0746 29.3612 64.0746 29.9135C64.0746 30.4658 63.6269 30.9135 63.0746 30.9135H57.7671V36.2213C57.7671 36.7736 57.3194 37.2213 56.7671 37.2213C56.2149 37.2213 55.7671 36.7736 55.7671 36.2213V30.9135H50.4597C49.9074 30.9135 49.4597 30.4658 49.4597 29.9135C49.4597 29.3612 49.9074 28.9135 50.4597 28.9135H55.7671V23.6058C55.7671 23.0535 56.2149 22.6058 56.7671 22.6058Z" fill="#E7E7DE"/>
<path d="M21.6641 26.7597C20.7343 26.7597 19.9736 27.5205 19.9736 28.4503C19.9736 29.3801 20.7343 30.1408 21.6641 30.1408H25.4153L29.8528 47.8916C30.2281 49.3962 31.5771 50.4274 33.1273 50.4274H35.1879H50.4023H52.5154C54.0402 50.4274 55.3351 49.4165 55.7374 47.944L58.1301 39.1524H54.6647L52.5154 47.0463H33.1273L28.6897 29.2955C28.5069 28.5674 28.085 27.9218 27.4916 27.462C26.8982 27.0022 26.1676 26.7549 25.417 26.7597H21.6641Z" fill="#E7E7DE"/>
<path fill-rule="evenodd" clip-rule="evenodd" d="M40.2594 55.4991C40.2594 52.7181 37.9688 50.4274 35.1879 50.4274C32.4071 50.4274 30.1165 52.7181 30.1165 55.4991C30.1165 58.28 32.4071 60.5707 35.1879 60.5707C37.9688 60.5707 40.2594 58.28 40.2594 55.4991ZM36.8784 55.4991C36.8784 54.549 36.1397 53.8085 35.1879 53.8085C34.2379 53.8085 33.4975 54.5473 33.4975 55.4991C33.4975 56.4492 34.2362 57.1896 35.1879 57.1896C36.138 57.1896 36.8784 56.4509 36.8784 55.4991Z" fill="#E7E7DE"/>
<path fill-rule="evenodd" clip-rule="evenodd" d="M55.4737 55.4991C55.4737 52.7181 53.1831 50.4274 50.4023 50.4274C47.6214 50.4274 45.3308 52.7181 45.3308 55.4991C45.3308 58.28 47.6214 60.5707 50.4023 60.5707C53.1831 60.5707 55.4737 58.28 55.4737 55.4991ZM50.4023 53.8085C51.354 53.8085 52.0927 54.549 52.0927 55.4991C52.0927 56.4509 51.3523 57.1896 50.4023 57.1896C49.4505 57.1896 48.7118 56.4492 48.7118 55.4991C48.7118 54.5473 49.4522 53.8085 50.4023 53.8085Z" fill="#E7E7DE"/>
</svg>
