<?xml version="1.0" encoding="utf-8"?>
<!-- Generator: Adobe Illustrator 24.3.0, SVG Export Plug-In . SVG Version: 6.00 Build 0)  -->
<svg version="1.1" id="Layer_1" xmlns="http://www.w3.org/2000/svg" xmlns:xlink="http://www.w3.org/1999/xlink" x="0px" y="0px"
	 viewBox="0 0 26 20" style="enable-background:new 0 0 26 20;" xml:space="preserve">
<style type="text/css">
	.st0{fill:none;stroke:#0F3057;}
</style>
<path class="st0" d="M23.7,5.9L23.7,5.9l-10,3c0,0,0,0,0,0c-0.4,0.1-0.9,0-1.4-0.2c-0.4-0.2-0.8-0.6-0.9-1c-0.1-0.4-0.1-0.9,0.2-1.4
	c0.2-0.4,0.6-0.8,1.1-0.9v0l0,0l10-3c0,0,0,0,0,0c0.4-0.1,0.9,0,1.4,0.2c0.4,0.2,0.8,0.6,0.9,1C25,4,24.9,4.5,24.7,5
	C24.5,5.4,24.1,5.7,23.7,5.9z M12.5,15.2c0,0-5,1.5-6.7,2c-0.5,0.1-1.1-0.1-1.4-0.5c-0.3-0.5-0.4-1.2-0.1-1.8
	c0.1-0.3,0.2-0.5,0.2-0.8c0-0.3-0.1-0.5-0.2-0.8l-2-6.7c0-0.1-0.2-0.5-0.2-0.6C2,5.7,1.7,5.5,1.4,5.3c-0.7-0.4-1-1.1-0.9-1.6
	c0-0.5,0.3-1,0.9-1.2l0,0l0,0l6.7-2c0,0,0,0,0,0c0.5-0.2,1.1,0.1,1.4,0.6c0.3,0.5,0.4,1.2,0.1,1.7c0,0.1-0.3,0.5-0.4,0.7
	C9.1,3.8,9,4.2,9.1,4.6l2,6.7c0.1,0.4,0.4,0.6,0.7,0.8c0.1,0.1,0.6,0.3,0.7,0.4c0.6,0.3,0.9,0.9,0.9,1.5
	C13.4,14.5,13.1,15,12.5,15.2L12.5,15.2L12.5,15.2z M17.3,18.2c0.7,0,1.3,0.6,1.4,1.3H2.2c0-0.7,0.6-1.3,1.4-1.3H17.3z"/>
</svg>
