<svg width="47" height="51" viewBox="0 0 47 51" fill="none" xmlns="http://www.w3.org/2000/svg">
<path d="M24.2921 32.3467C22.702 30.6615 22.664 27.8777 24.2077 26.1488C25.7293 24.4448 28.214 24.4105 29.7812 26.0713L44.9985 42.1982C46.5886 43.8834 46.6266 46.6673 45.0828 48.3961C43.5613 50.1001 41.0765 50.1345 39.5094 48.4736L24.2921 32.3467ZM24.7225 2.43572L33.8741 12.1342C34.9394 13.2633 35.1146 14.8176 34.6357 16.1028C34.1574 17.3866 33.0575 18.3327 31.6164 18.3294C30.4484 18.3268 29.34 18.8399 28.5408 19.7349L18.7575 30.6911C17.9391 31.6076 17.4875 32.8277 17.4872 34.0911C17.4868 35.8432 16.5261 37.1323 15.3079 37.6905C14.0957 38.246 12.6125 38.0894 11.485 36.8946L2.55798 27.4339C1.42283 26.2309 1.18733 24.5732 1.6448 23.1646C2.10203 21.7568 3.22692 20.661 4.76381 20.5119C5.8854 20.403 6.92476 19.8608 7.69702 18.996L16.5347 9.0988C17.5166 7.99923 18.1193 6.57367 18.2517 5.05914C18.4077 3.275 19.4688 2.01684 20.7561 1.50371C22.0383 0.992543 23.5654 1.20939 24.7225 2.43572Z" fill="#FAFAF8" stroke="#FAFAF8"/>
</svg>
