<svg width="27" height="20" viewBox="0 0 27 20" fill="none" xmlns="http://www.w3.org/2000/svg">
<path d="M17.5709 2.4525C16.2882 1.84696 14.8659 1.46897 13.3084 1.46897C9.60478 1.46897 6.64275 3.61491 4.55976 5.86607C3.52532 6.98403 2.72986 8.1049 2.19304 8.94706C1.92509 9.36742 1.72279 9.71644 1.58847 9.95838L1.56545 10L1.58847 10.0416C1.72279 10.2836 1.92509 10.6326 2.19304 11.0529C2.72986 11.8951 3.52532 13.016 4.55976 14.1339C6.64275 16.3851 9.60478 18.531 13.3084 18.531C17.0121 18.531 19.9741 16.3851 22.0571 14.1339C23.0916 13.016 23.887 11.8951 24.4239 11.0529C24.6918 10.6326 24.8941 10.2836 25.0284 10.0416L25.0514 10C25.0366 9.97312 25.0209 9.94474 25.0042 9.9149C24.8536 9.64563 24.627 9.25884 24.3273 8.79686C23.7266 7.87109 22.8381 6.65296 21.6854 5.47541C21.4016 5.18553 21.4066 4.72051 21.6965 4.43675C21.9864 4.15299 22.4514 4.15795 22.7351 4.44782C23.9742 5.71364 24.922 7.0147 25.5595 7.99728C25.8789 8.48948 26.122 8.90415 26.2862 9.19781C26.3684 9.3447 26.4309 9.46149 26.4735 9.54278C26.4948 9.58343 26.5112 9.61522 26.5225 9.63747L26.5357 9.66361L26.5395 9.67117L26.5406 9.67354L26.541 9.67437C26.5411 9.67451 26.5413 9.67496 25.8827 10C26.5413 10.325 26.5412 10.3253 26.5411 10.3256L26.5407 10.3264L26.5396 10.3285L26.5362 10.3354L26.5243 10.3589C26.5142 10.379 26.4995 10.4075 26.4804 10.4441C26.4423 10.5172 26.3863 10.6222 26.3127 10.7546C26.1658 11.0194 25.9483 11.3942 25.6626 11.8425C25.092 12.7377 24.2442 13.9332 23.1353 15.1316C20.9317 17.5132 17.6066 20 13.3084 20C9.01033 20 5.68524 17.5132 3.48155 15.1316C2.37266 13.9332 1.5249 12.7377 0.954324 11.8425C0.668579 11.3942 0.451146 11.0194 0.304153 10.7546C0.23063 10.6222 0.174647 10.5172 0.136475 10.4441C0.117388 10.4075 0.102746 10.379 0.0925838 10.3589L0.0807012 10.3354L0.0772886 10.3285L0.0762127 10.3264L0.0758344 10.3256C0.0756888 10.3253 0.0755599 10.325 0.734209 10C0.0755599 9.67496 0.0756888 9.6747 0.0758344 9.67441L0.0762127 9.67364L0.0772886 9.67148L0.0807012 9.66463L0.0925838 9.64107C0.102746 9.62104 0.117388 9.59247 0.136475 9.55592C0.174647 9.48283 0.23063 9.37779 0.304153 9.24536C0.451146 8.9806 0.668579 8.60575 0.954324 8.15747C1.5249 7.26234 2.37266 6.06683 3.48155 4.86841C5.68524 2.48681 9.01033 0 13.3084 0C15.111 0 16.7465 0.43889 18.198 1.12411C18.5648 1.29727 18.7218 1.73503 18.5486 2.10185C18.3755 2.46867 17.9377 2.62566 17.5709 2.4525Z" fill="#0F3057"/>
<path d="M0.734209 10L0.0758344 9.67441C-0.0252781 9.87931 -0.0252781 10.1207 0.0758344 10.3256L0.734209 10Z" fill="#0F3057"/>
<path d="M25.8827 10L26.5411 10.3256C26.6422 10.1207 26.6422 9.87927 26.541 9.67437L25.8827 10Z" fill="#0F3057"/>
<path d="M12.0977 6.26625C12.0977 7.48318 11.1111 8.4697 9.89421 8.4697C9.34859 8.4697 8.8493 8.27139 8.46446 7.94291C8.21575 8.5861 8.07898 9.28786 8.07898 10.0226C8.07898 13.124 10.5162 15.6383 13.5226 15.6383C16.529 15.6383 18.9662 13.124 18.9662 10.0226C18.9662 6.92113 16.529 4.4069 13.5226 4.4069C12.8205 4.4069 12.1495 4.544 11.5334 4.79366C11.8842 5.18393 12.0977 5.70016 12.0977 6.26625Z" fill="#0F3057"/>
</svg>
