<svg width="41" height="40" viewBox="0 0 41 40" fill="none" xmlns="http://www.w3.org/2000/svg">
<path d="M28.8238 0C35.6038 0 40.1438 4.76 40.1438 11.84V28.182C40.1438 35.242 35.6038 40 28.8238 40H11.4838C4.7038 40 0.143799 35.242 0.143799 28.182V11.84C0.143799 4.76 4.7038 0 11.4838 0H28.8238ZM20.1238 16.962C19.1638 16.962 18.3838 17.76 18.3838 18.722V27.562C18.3838 28.522 19.1638 29.302 20.1238 29.302C21.1038 29.302 21.8838 28.522 21.8838 27.562V18.722C21.8838 17.76 21.1038 16.962 20.1238 16.962ZM20.1638 10.622C19.1838 10.622 18.4038 11.402 18.4038 12.382C18.4038 13.34 19.1838 14.122 20.1238 14.122C21.1238 14.122 21.9038 13.34 21.9038 12.382C21.9038 11.402 21.1238 10.622 20.1638 10.622Z" fill="#49444A"/>
</svg>
