<svg width="60" height="59" viewBox="0 0 60 59" fill="none" xmlns="http://www.w3.org/2000/svg">
<g id="acc-icon">
<path id="bg" fill-rule="evenodd" clip-rule="evenodd" d="M18 0C8.05888 0 0 8.05888 0 18V29.5C0 45.7924 13.2076 59 29.5 59H42.3C52.0754 59 60 51.0754 60 41.3C60 18.4906 41.5094 0 18.7 0H18Z" fill="#14437D"/>
<g id="acc">
<path d="M40 20.5C40 25.7467 35.7467 30 30.5 30C25.2533 30 21 25.7467 21 20.5C21 15.2533 25.2533 11 30.5 11C35.7467 11 40 15.2533 40 20.5Z" fill="#FAFAF8"/>
<path d="M45 40.5C45 44.0899 38.5081 47 30.5 47C22.4919 47 16 44.0899 16 40.5C16 36.9101 22.4919 34 30.5 34C38.5081 34 45 36.9101 45 40.5Z" fill="#FAFAF8"/>
</g>
</g>
</svg>
