<svg width="41" height="40" viewBox="0 0 41 40" fill="none" xmlns="http://www.w3.org/2000/svg">
<path d="M21.4217 1.56808L30.2373 10.3837C32.0383 12.1847 30.6858 15.2593 28.1411 15.1488C27.079 15.1026 26.0463 15.5043 25.2945 16.2561L16.5704 24.9802C15.8 25.7506 15.3738 26.7997 15.3886 27.8891C15.4255 30.6139 12.1323 32.0043 10.2054 30.0774L1.59374 21.4657C-0.328214 19.5437 0.94358 16.2538 3.65855 16.1243C4.68493 16.0753 5.65624 15.6456 6.38282 14.919L14.25 7.05189C15.1701 6.1317 15.7335 4.91456 15.8397 3.61756C16.0673 0.83527 19.4477 -0.405872 21.4217 1.56808ZM27.6084 21.2441L38.6298 32.2656C40.0796 33.7154 40.0796 36.0659 38.6298 37.5157C37.1801 38.9655 34.8295 38.9655 33.3797 37.5157L22.3583 26.4942C20.9085 25.0445 20.9085 22.6939 22.3583 21.2441C23.808 19.7944 26.1586 19.7944 27.6084 21.2441Z" fill="#49444A" stroke="#49444A"/>
</svg>
