<svg width="55" height="55" viewBox="0 0 55 55" fill="none" xmlns="http://www.w3.org/2000/svg">
<g id="cart-icon">
<rect id="bg" width="55" height="55" rx="27.5" fill="#14437D"/>
<path id="cart" d="M9.60808 11.0001C8.72363 11.0001 8 11.7237 8 12.6081C8 13.4926 8.72363 14.2162 9.60808 14.2162H13.1764L17.3976 31.101C17.7546 32.5322 19.0378 33.5131 20.5124 33.5131H38.9555C40.4059 33.5131 41.6377 32.5515 42.0205 31.1509L46.1918 15.8243H19.2565L20.0606 19.0404H42.0205L38.9555 30.297H20.5124L16.2912 13.4122C16.1173 12.7196 15.716 12.1054 15.1515 11.6681C14.587 11.2307 13.8921 10.9955 13.178 11.0001H9.60808ZM36.9454 33.5131C34.3001 33.5131 32.1211 35.6921 32.1211 38.3373C32.1211 40.9826 34.3001 43.1616 36.9454 43.1616C39.5906 43.1616 41.7696 40.9826 41.7696 38.3373C41.7696 35.6921 39.5906 33.5131 36.9454 33.5131ZM22.4727 33.5131C19.8274 33.5131 17.6485 35.6921 17.6485 38.3373C17.6485 40.9826 19.8274 43.1616 22.4727 43.1616C25.118 43.1616 27.2969 40.9826 27.2969 38.3373C27.2969 35.6921 25.118 33.5131 22.4727 33.5131ZM22.4727 36.7293C23.378 36.7293 24.0808 37.4336 24.0808 38.3373C24.0808 39.2427 23.3764 39.9454 22.4727 39.9454C21.5673 39.9454 20.8646 39.2411 20.8646 38.3373C20.8646 37.432 21.5689 36.7293 22.4727 36.7293ZM36.9454 36.7293C37.8507 36.7293 38.5534 37.4336 38.5534 38.3373C38.5534 39.2427 37.8491 39.9454 36.9454 39.9454C36.04 39.9454 35.3373 39.2411 35.3373 38.3373C35.3373 37.432 36.0416 36.7293 36.9454 36.7293Z" fill="#FAFAF8"/>
</g>
</svg>
