<svg xmlns="http://www.w3.org/2000/svg" viewBox="0 0 45.27 45.53">
  <defs>
    <style>
      .a5b5ac20-823e-46fd-b3c1-f069ff905e21 {
        fill: #49444a;
      }

      .f4b23904-ae54-4be6-860c-1fe97a0b2e6e {
        fill: #ed7674;
      }

      .a1139dd2-00d5-4531-b5cd-63cb1b091a71 {
        fill: #4a454a;
      }

      .b5ba8fe0-4370-444d-bed4-be908f1de03a {
        fill: #f6eeee;
      }
    </style>
  </defs>
  <g id="b9940d86-13e6-4d42-a32b-aa0bb004c785" data-name="Layer 2">
    <g id="f7cc8412-f0e3-4413-a6eb-01a416748d44" data-name="Layer 1">
      <circle class="a5b5ac20-823e-46fd-b3c1-f069ff905e21" cx="22.5" cy="23.03" r="22.5"/>
      <g id="ba2e3ba8-b7b0-46eb-b810-e93244abd139" data-name="banner">
        <circle class="f4b23904-ae54-4be6-860c-1fe97a0b2e6e" cx="36.27" cy="9" r="9"/>
        <g>
          <path class="a1139dd2-00d5-4531-b5cd-63cb1b091a71" d="M34.2,8.15v.17a.8.8,0,0,1-.41.33,1.75,1.75,0,0,1-.64.11,1.86,1.86,0,0,1-1-.26,1.8,1.8,0,0,1-.66-.73,2.5,2.5,0,0,1-.23-1.09h0a2.47,2.47,0,0,1,.26-1.17,1.68,1.68,0,0,1,.74-.75,2.67,2.67,0,0,1,1.18-.25,2.52,2.52,0,0,1,1.17.26,1.73,1.73,0,0,1,.74.75,2.58,2.58,0,0,1,.25,1.19h0a3.46,3.46,0,0,1-.1.82,4.85,4.85,0,0,1-.31.85l-.06.13c0,.05,0,.09-.07.13l-1.66,3H32.24Zm0-.62a1.28,1.28,0,0,0,.28-.89h0a1.2,1.2,0,0,0-.28-.86,1.17,1.17,0,0,0-1.59,0,1.22,1.22,0,0,0-.29.87h0a1.3,1.3,0,0,0,.29.9,1,1,0,0,0,.8.31A1,1,0,0,0,34.25,7.53Z"/>
          <path class="a1139dd2-00d5-4531-b5cd-63cb1b091a71" d="M39.83,8.15v.17a.78.78,0,0,1-.4.33,1.75,1.75,0,0,1-.64.11,1.86,1.86,0,0,1-1-.26,1.8,1.8,0,0,1-.66-.73,2.5,2.5,0,0,1-.23-1.09h0a2.59,2.59,0,0,1,.25-1.17,1.7,1.7,0,0,1,.75-.75,2.66,2.66,0,0,1,1.17-.25,2.54,2.54,0,0,1,1.18.26,1.73,1.73,0,0,1,.74.75,2.58,2.58,0,0,1,.25,1.19h0a3.46,3.46,0,0,1-.1.82,5.82,5.82,0,0,1-.31.85l-.06.13-.07.13-1.66,3H37.87Zm.05-.62a1.28,1.28,0,0,0,.28-.89h0a1.2,1.2,0,0,0-.28-.86,1,1,0,0,0-.8-.31,1,1,0,0,0-.8.31,1.26,1.26,0,0,0-.28.87h0a1.35,1.35,0,0,0,.28.9,1.17,1.17,0,0,0,1.6,0Z"/>
        </g>
      </g>
      <path class="b5ba8fe0-4370-444d-bed4-be908f1de03a" d="M25.9,13.11l-12,1.73,1.15,2.81,12.2-1.75m7.11,3.82-.7,5.67L17,27.8,10.92,13A3,3,0,0,0,9.65,11.6a2.91,2.91,0,0,0-1.87-.34l-3.24.46A1.48,1.48,0,0,0,5,14.64l3.23-.47,6,14.77a2.92,2.92,0,0,0,3.14,1.78L34.1,28.31a2.91,2.91,0,0,0,2.47-2.54l.75-6.12m-5,8.92a4.43,4.43,0,1,0,5,3.75A4.44,4.44,0,0,0,32.27,28.57ZM19.15,30.46a4.43,4.43,0,1,0,5,3.75A4.45,4.45,0,0,0,19.15,30.46Zm.42,2.92a1.48,1.48,0,1,1-1.25,1.67A1.46,1.46,0,0,1,19.57,33.38Zm13.12-1.89a1.48,1.48,0,1,1-1.25,1.67A1.46,1.46,0,0,1,32.69,31.49Z"/>
    </g>
  </g>
</svg>
