<svg width="41" height="40" viewBox="0 0 41 40" fill="none" xmlns="http://www.w3.org/2000/svg">
<path d="M33.0494 24.7584C31.7059 24.4694 30.6432 25.0931 29.7022 25.6379C28.7385 26.1992 26.906 27.6857 25.8556 27.3053C20.4779 25.0911 15.42 20.3841 13.2305 14.9847C12.8446 13.912 14.3242 12.0678 14.8814 11.0927C15.422 10.1489 16.0329 9.07606 15.7543 7.72259C15.5025 6.50634 12.2461 2.36277 11.0946 1.22969C10.3352 0.481225 9.55725 0.0695712 8.75864 0.0030413C5.75609 -0.12586 2.40273 3.88049 1.8146 4.83894C0.341188 6.88265 0.349443 9.60206 1.83937 12.8995C5.43004 21.7562 19.0106 35.1225 27.9007 38.8482C29.5412 39.6154 31.0415 40 32.389 40C33.7076 40 34.8818 39.632 35.8909 38.9023C36.6524 38.4636 40.823 34.9437 40.7136 31.8605C40.6475 31.0746 40.2369 30.2887 39.4981 29.5278C38.3735 28.3656 34.2566 25.0121 33.0494 24.7584Z" fill="#49444A"/>
</svg>
