<svg width="207" height="86" viewBox="0 0 207 86" fill="none" xmlns="http://www.w3.org/2000/svg">
<path d="M6.33691 33.7861C7.82715 33.7861 9.1123 34.3193 10.1924 35.3857C11.2314 36.4385 11.751 37.7236 11.751 39.2412L11.7715 40.2051H8.1416L8.16211 39.2412C8.16211 38.749 7.97754 38.3252 7.6084 37.9697C7.25293 37.5869 6.8291 37.3955 6.33691 37.3955C5.8584 37.3955 5.42773 37.5869 5.04492 37.9697C4.68945 38.3115 4.51172 38.7354 4.51172 39.2412V53.7402C4.51172 54.2461 4.68945 54.6699 5.04492 55.0117C5.42773 55.3809 5.8584 55.5654 6.33691 55.5654C6.8291 55.5654 7.25293 55.3809 7.6084 55.0117C7.97754 54.6699 8.16211 54.2461 8.16211 53.7402L8.1416 45.9473H6.33691V42.3174H11.7715L11.751 53.7402C11.751 55.2441 11.2314 56.5225 10.1924 57.5752C9.1123 58.6416 7.82715 59.1748 6.33691 59.1748C4.83301 59.1748 3.54785 58.6416 2.48145 57.5752C1.42871 56.5361 0.902344 55.2578 0.902344 53.7402V39.2412C0.902344 37.7236 1.42871 36.4385 2.48145 35.3857C3.56152 34.3193 4.84668 33.7861 6.33691 33.7861ZM18.0107 41.0459C19.501 41.0459 20.7861 41.5791 21.8662 42.6455C22.9189 43.6982 23.4453 44.9834 23.4453 46.501V53.7402C23.4453 55.2441 22.9189 56.5225 21.8662 57.5752C20.7861 58.6416 19.501 59.1748 18.0107 59.1748C16.5205 59.1748 15.2354 58.6416 14.1553 57.5752C13.1025 56.5361 12.5762 55.2578 12.5762 53.7402V46.501C12.5762 44.9834 13.1025 43.6982 14.1553 42.6455C15.2354 41.5791 16.5205 41.0459 18.0107 41.0459ZM18.0107 44.6553C17.5322 44.6553 17.1016 44.8398 16.7188 45.209C16.3633 45.5645 16.1855 45.9951 16.1855 46.501V53.7402C16.1855 54.2324 16.3633 54.6562 16.7188 55.0117C17.0879 55.3809 17.5186 55.5654 18.0107 55.5654C18.5029 55.5654 18.9268 55.3809 19.2822 55.0117C19.6514 54.6699 19.8359 54.2461 19.8359 53.7402V46.501C19.8359 45.9951 19.6514 45.5645 19.2822 45.209C18.9268 44.8398 18.5029 44.6553 18.0107 44.6553ZM29.6846 41.0459C31.1748 41.0459 32.46 41.5791 33.54 42.6455C34.5928 43.6982 35.1191 44.9834 35.1191 46.501V53.7402C35.1191 55.2441 34.5928 56.5225 33.54 57.5752C32.46 58.6416 31.1748 59.1748 29.6846 59.1748C28.1943 59.1748 26.9092 58.6416 25.8291 57.5752C24.7764 56.5361 24.25 55.2578 24.25 53.7402V46.501C24.25 44.9834 24.7764 43.6982 25.8291 42.6455C26.9092 41.5791 28.1943 41.0459 29.6846 41.0459ZM29.6846 44.6553C29.2061 44.6553 28.7754 44.8398 28.3926 45.209C28.0371 45.5645 27.8594 45.9951 27.8594 46.501V53.7402C27.8594 54.2324 28.0371 54.6562 28.3926 55.0117C28.7617 55.3809 29.1924 55.5654 29.6846 55.5654C30.1768 55.5654 30.6006 55.3809 30.9561 55.0117C31.3252 54.6699 31.5098 54.2461 31.5098 53.7402V46.501C31.5098 45.9951 31.3252 45.5645 30.9561 45.209C30.6006 44.8398 30.1768 44.6553 29.6846 44.6553ZM41.3584 59.2568C39.8545 59.2568 38.5693 58.7305 37.5029 57.6777C36.4502 56.6113 35.9238 55.3262 35.9238 53.8223V46.5625C35.9238 45.0586 36.4502 43.7803 37.5029 42.7275C38.5557 41.6748 39.8408 41.1484 41.3584 41.1484H43.1631V33.8682H46.793V59.2568H41.3584ZM41.3584 44.7373C40.8662 44.7373 40.4355 44.915 40.0664 45.2705C39.6973 45.6533 39.5127 46.084 39.5127 46.5625V53.8223C39.5127 54.3281 39.6973 54.7588 40.0664 55.1143C40.4355 55.4697 40.8662 55.6475 41.3584 55.6475H43.1631V44.7578L41.3584 44.7373ZM64.7471 33.7861C66.2373 33.7861 67.5225 34.3193 68.6025 35.3857C69.6553 36.4521 70.1816 37.7373 70.1816 39.2412V46.0703H66.5518L66.5723 39.2412C66.5723 38.749 66.3945 38.3252 66.0391 37.9697C65.6699 37.5869 65.2393 37.3955 64.7471 37.3955C64.2412 37.3955 63.8105 37.5869 63.4551 37.9697C63.0996 38.3252 62.9219 38.749 62.9219 39.2412V53.7402C62.9219 54.2324 63.0996 54.6562 63.4551 55.0117C63.8105 55.3809 64.2412 55.5654 64.7471 55.5654C65.2393 55.5654 65.6699 55.3809 66.0391 55.0117C66.3945 54.6562 66.5723 54.2324 66.5723 53.7402L66.5518 50.1104H70.1816V53.7402C70.1816 55.2441 69.6553 56.5225 68.6025 57.5752C67.5225 58.6416 66.2373 59.1748 64.7471 59.1748C63.2295 59.1748 61.9443 58.6416 60.8916 57.5752C59.8389 56.5225 59.3125 55.2441 59.3125 53.7402V39.2412C59.3125 37.7373 59.8389 36.4521 60.8916 35.3857C61.9717 34.3193 63.2568 33.7861 64.7471 33.7861ZM81.8555 59.1748H78.2461V46.5625C78.2461 46.084 78.0684 45.6533 77.7129 45.2705C77.3438 44.915 76.9131 44.7373 76.4209 44.7373L74.6162 44.7578V59.1748H70.9863V33.8682H74.6162V41.1484H76.4209C77.9385 41.1484 79.2236 41.6748 80.2764 42.7275C81.3291 43.7803 81.8555 45.0586 81.8555 46.5625V59.1748ZM88.0947 41.0459C89.585 41.0459 90.8701 41.5791 91.9502 42.6455C93.0029 43.6982 93.5293 44.9834 93.5293 46.501V51.9766H86.2695V53.7402C86.2695 54.2324 86.4473 54.6562 86.8027 55.0117C87.1719 55.3809 87.6025 55.5654 88.0947 55.5654C88.5869 55.5654 89.0176 55.3809 89.3867 55.0117C89.7422 54.6562 89.9199 54.2324 89.9199 53.7402H93.5293C93.5293 55.2441 93.0029 56.5225 91.9502 57.5752C90.8701 58.6416 89.585 59.1748 88.0947 59.1748C86.6045 59.1748 85.3193 58.6416 84.2393 57.5752C83.1865 56.5225 82.6602 55.2441 82.6602 53.7402V46.501C82.6602 44.9834 83.1865 43.6982 84.2393 42.6455C85.3193 41.5791 86.6045 41.0459 88.0947 41.0459ZM86.2695 48.2852H89.9199V46.501C89.9199 45.9951 89.7422 45.5645 89.3867 45.209C89.0176 44.8398 88.5869 44.6553 88.0947 44.6553C87.6162 44.6553 87.1855 44.8398 86.8027 45.209C86.4473 45.5645 86.2695 45.9951 86.2695 46.501V48.2852ZM105.224 59.1748H99.7686C98.2783 59.1748 97 58.6416 95.9336 57.5752C94.8672 56.5088 94.334 55.2305 94.334 53.7402L94.3545 53.6992C94.3545 52.1816 94.8809 50.8965 95.9336 49.8438C97 48.7773 98.2783 48.2441 99.7686 48.2441C100.425 48.2441 101.04 48.3467 101.614 48.5518V46.46C101.614 45.9541 101.43 45.5234 101.061 45.168C100.691 44.7988 100.261 44.6143 99.7686 44.6143C99.3037 44.6143 98.8799 44.7988 98.4971 45.168C98.1416 45.5234 97.9639 45.9541 97.9639 46.46H94.3545C94.3545 44.9424 94.8809 43.6572 95.9336 42.6045C97 41.5381 98.2783 41.0049 99.7686 41.0049C101.272 41.0049 102.558 41.5381 103.624 42.6045C104.69 43.6572 105.224 44.9424 105.224 46.46V59.1748ZM101.594 55.5449L101.614 53.6992V53.5967C101.573 53.1455 101.389 52.749 101.061 52.4072C100.691 52.0518 100.261 51.874 99.7686 51.874C99.3037 51.874 98.8799 52.0518 98.4971 52.4072C98.1416 52.7627 97.9639 53.1934 97.9639 53.6992V53.7402C97.9639 54.2324 98.1416 54.6562 98.4971 55.0117C98.8662 55.3809 99.29 55.5654 99.7686 55.5654L101.594 55.5449ZM111.483 41.0664C112.987 41.0664 114.272 41.5928 115.339 42.6455C116.392 43.7119 116.918 44.9971 116.918 46.501V53.7607C116.918 55.251 116.392 56.5293 115.339 57.5957C114.259 58.6484 112.974 59.1748 111.483 59.1748H109.658V66.4346H106.049V41.0459L111.483 41.0664ZM111.483 55.5654C111.976 55.5654 112.406 55.3877 112.775 55.0322C113.131 54.6768 113.309 54.2529 113.309 53.7607V46.501C113.309 46.0088 113.131 45.585 112.775 45.2295C112.42 44.8467 111.989 44.6553 111.483 44.6553H109.658V55.5654H111.483Z" fill="#F1FAEE"/>
<path d="M58.4873 50.1104V59.1748H52.8682C51.4326 59.1475 50.209 58.6143 49.1973 57.5752C48.1445 56.5361 47.6182 55.2578 47.6182 53.7402H47.5977V48.2852H47.6182C47.6182 46.918 48.0762 45.708 48.9922 44.6553C48.0762 43.6299 47.6182 42.4268 47.6182 41.0459H47.5977V39.2412H47.6182C47.6182 37.7236 48.1445 36.4385 49.1973 35.3857C50.25 34.3193 51.5283 33.7861 53.0322 33.7861C54.5361 33.7861 55.8213 34.3193 56.8877 35.3857C57.9404 36.4385 58.4668 37.7236 58.4668 39.2412H58.4873V41.0459H58.4668C58.4668 42.4268 58.0088 43.6299 57.0928 44.6553C58.0088 45.708 58.4668 46.918 58.4668 48.2852H54.8574C54.8574 47.8066 54.6797 47.3828 54.3242 47.0137C53.9551 46.6582 53.5244 46.4805 53.0322 46.4805C52.5537 46.4805 52.1299 46.6582 51.7607 47.0137C51.4053 47.3691 51.2275 47.793 51.2275 48.2852V53.7402C51.2275 54.2461 51.4053 54.6699 51.7607 55.0117C52.0889 55.3535 52.458 55.5312 52.8682 55.5449H54.8574V53.7402H53.0322V50.1104H58.4873ZM53.0322 42.8711C53.5244 42.8711 53.9551 42.6865 54.3242 42.3174C54.6797 41.9893 54.8574 41.5654 54.8574 41.0459V39.2412C54.8574 38.7354 54.6797 38.3115 54.3242 37.9697C53.9688 37.6006 53.5381 37.416 53.0322 37.416C52.5264 37.416 52.1025 37.6006 51.7607 37.9697C51.4053 38.3115 51.2275 38.7354 51.2275 39.2412V41.0459C51.2275 41.5654 51.4053 41.9893 51.7607 42.3174C52.1299 42.6865 52.5537 42.8711 53.0322 42.8711Z" fill="#E63946"/>
</svg>
