<svg width="35" height="38" viewBox="0 0 35 38" fill="none" xmlns="http://www.w3.org/2000/svg">
<path d="M12.0211 34.7991V29.2782C12.0211 27.8689 13.1719 26.7264 14.5916 26.7264H19.7811C20.4628 26.7264 21.1166 26.9953 21.5987 27.4738C22.0807 27.9524 22.3516 28.6015 22.3516 29.2782V34.7991C22.3472 35.3851 22.5787 35.9484 22.9945 36.3643C23.4103 36.7801 23.9762 37.0139 24.5664 37.0139H28.1069C29.7604 37.0182 31.3477 36.3691 32.5185 35.2098C33.6892 34.0506 34.3472 32.4765 34.3472 30.835V15.1069C34.3472 13.7809 33.7551 12.5231 32.7305 11.6724L20.6864 2.12315C18.5913 0.448846 15.5895 0.502905 13.5569 2.25154L1.78762 11.6724C0.71463 12.498 0.0733176 13.7595 0.041626 15.1069V30.819C0.041626 34.2403 2.83551 37.0139 6.28194 37.0139H9.7416C10.9675 37.0139 11.9637 36.0321 11.9726 34.8152L12.0211 34.7991Z" fill="#0F3057"/>
</svg>
