<svg width="32" height="38" viewBox="0 0 32 38" fill="none" xmlns="http://www.w3.org/2000/svg">
<path d="M25.7692 18.2137C25.7692 24.3216 20.9995 28.2319 20.9995 29.8207V29.7795L11.6262 29.7279C11.4334 27.814 6.48901 24.239 6.48901 18.2137C6.48901 15.2722 7.50442 12.4511 9.31187 10.3711C11.1193 8.29109 13.5707 7.12256 16.1268 7.12256C18.683 7.12256 21.1344 8.29109 22.9418 10.3711C24.7493 12.4511 25.7647 15.2722 25.7647 18.2137H25.7692Z" fill="#FAFAF8"/>
<path d="M15.5302 0.257934V2.83727C15.5302 2.97972 15.6306 3.0952 15.7544 3.0952H15.9785C16.1023 3.0952 16.2026 2.97972 16.2026 2.83727V0.257934C16.2026 0.115481 16.1023 0 15.9785 0H15.7544C15.6306 0 15.5302 0.115481 15.5302 0.257934Z" fill="#0F3057"/>
<path d="M21.9746 4.61763L23.0953 2.38386C23.1572 2.26049 23.2942 2.21822 23.4014 2.28945L23.5956 2.41841C23.7028 2.48964 23.7395 2.64739 23.6776 2.77076L22.5569 5.00453C22.495 5.12789 22.358 5.17016 22.2507 5.09894L22.0566 4.96997C21.9494 4.89874 21.9127 4.74099 21.9746 4.61763Z" fill="#0F3057"/>
<path fill-rule="evenodd" clip-rule="evenodd" d="M21.1026 29.6843C21.1812 29.3433 21.3232 29.0254 21.5195 28.7528C21.7125 28.4173 21.9168 28.1121 22.122 27.8055L22.1785 27.721C22.6267 27.0556 23.075 26.3901 23.5233 25.6937C24.406 24.3144 25.0818 22.7747 25.5226 21.1386C25.9267 19.475 25.9876 17.7259 25.7004 16.0305C25.4132 14.3351 24.7859 12.7403 23.8685 11.3732C22.9587 9.99863 21.7862 8.88355 20.4417 8.11433C19.0972 7.34512 17.6169 6.94241 16.1155 6.93743C14.614 6.93244 13.1317 7.3253 11.7834 8.08557C10.4351 8.84584 9.257 9.95312 8.34035 11.3216C7.40691 12.6861 6.77055 14.2876 6.48436 15.9926C6.19818 17.6977 6.27047 19.4567 6.6952 21.1231C7.18093 22.7577 7.91895 24.2781 8.8738 25.6111C9.2623 26.191 9.67391 26.7481 10.0831 27.302L10.2859 27.5766C10.5234 27.9016 10.7565 28.2214 10.9717 28.5567C11.1877 28.8661 11.3574 29.2148 11.4738 29.5885L11.4962 29.7278C11.4992 29.7724 11.4992 29.8172 11.4962 29.8619V30.1869C11.4998 30.2711 11.5062 30.3561 11.5126 30.4413C11.5223 30.5701 11.532 30.6993 11.532 30.8266C11.5635 31.2638 11.6205 31.6981 11.7024 32.1265C11.8577 32.9748 12.1349 33.7873 12.5227 34.5305C12.913 35.2799 13.4484 35.9154 14.0872 36.3876C14.7313 36.8613 15.4749 37.1251 16.2389 37.1511C17.0032 37.1686 17.7569 36.9438 18.4175 36.5011C19.0682 36.0641 19.6197 35.456 20.0268 34.7265C20.7953 33.2384 21.1692 31.5242 21.1026 29.7948V29.6843ZM20.9132 29.6246H13.1003C13.0999 29.613 13.0997 29.6012 13.0994 29.5892C13.0986 29.5524 13.0977 29.5127 13.092 29.4647C13.0786 29.3512 13.0606 29.2428 13.0382 29.1293C12.8831 28.5126 12.6309 27.9338 12.2941 27.4218C12.0386 27.0143 11.7965 26.6635 11.5589 26.323C11.0703 25.6524 10.631 25.0179 10.2141 24.3937C9.40911 23.2348 8.79118 21.9191 8.38966 20.5092C8.21263 19.852 8.11607 19.1697 8.10277 18.4818C8.09021 17.7776 8.1428 17.0737 8.25967 16.3823C8.49412 14.9897 9.00268 13.6775 9.74633 12.5463C10.49 11.4151 11.4489 10.495 12.5496 9.85654C13.6583 9.19032 14.8854 8.82671 16.1358 8.79386C17.41 8.7671 18.6733 9.06978 19.8324 9.67957C20.9915 10.2894 22.0168 11.1907 22.833 12.3172C23.6855 13.4904 24.2939 14.8722 24.6117 16.3572C24.9294 17.8423 24.9481 19.3912 24.6664 20.8858C24.3487 22.4673 23.8016 23.9758 23.0481 25.348C22.8156 25.7962 22.5638 26.2322 22.3103 26.6713C22.1582 26.9346 22.0053 27.1995 21.8557 27.4683C21.654 27.8294 21.4523 28.1905 21.2685 28.5722C21.0847 28.8899 20.9638 29.2492 20.9132 29.6246Z" fill="#0F3057"/>
<path d="M0.826919 17.1784H3.06828C3.19206 17.1784 3.29241 17.2938 3.29241 17.4363V17.6942C3.29241 17.8367 3.19206 17.9522 3.06828 17.9522H0.826919C0.703132 17.9522 0.602783 17.8367 0.602783 17.6942V17.4363C0.602783 17.2938 0.703132 17.1784 0.826919 17.1784Z" fill="#0F3057"/>
<path d="M30.9014 17.1784H28.66C28.5362 17.1784 28.4359 17.2939 28.4359 17.4363V17.6942C28.4359 17.8367 28.5362 17.9522 28.66 17.9522H30.9014C31.0251 17.9522 31.1255 17.8367 31.1255 17.6942V17.4363C31.1255 17.2939 31.0251 17.1784 30.9014 17.1784Z" fill="#0F3057"/>
<path d="M2.67182 25.8807L4.61289 24.591C4.72009 24.5198 4.85717 24.5621 4.91906 24.6854L5.03113 24.9088C5.09303 25.0322 5.0563 25.1899 4.94909 25.2612L3.00802 26.5508C2.90082 26.622 2.76374 26.5798 2.70185 26.4564L2.58978 26.233C2.52789 26.1097 2.56462 25.9519 2.67182 25.8807Z" fill="#0F3057"/>
<path d="M28.717 8.57588L26.7759 9.86555C26.6687 9.93678 26.632 10.0945 26.6939 10.2179L26.806 10.4413C26.8679 10.5646 27.0049 10.6069 27.1121 10.5357L29.0532 9.24602C29.1604 9.17479 29.1971 9.01704 29.1353 8.89367L29.0232 8.67029C28.9613 8.54693 28.8242 8.50466 28.717 8.57588Z" fill="#0F3057"/>
<path d="M9.1787 5.0046L8.05803 2.77083C7.99613 2.64746 8.03286 2.48971 8.14006 2.41848L8.33417 2.28951C8.44137 2.21829 8.57845 2.26056 8.64035 2.38392L9.76103 4.6177C9.82292 4.74106 9.78619 4.89881 9.67899 4.97004L9.48488 5.09901C9.37768 5.17023 9.2406 5.12796 9.1787 5.0046Z" fill="#0F3057"/>
<path d="M26.7809 25.265L28.722 26.5546C28.8292 26.6258 28.9663 26.5836 29.0282 26.4602L29.1402 26.2368C29.2021 26.1135 29.1654 25.9557 29.0582 25.8845L27.1171 24.5948C27.0099 24.5236 26.8728 24.5659 26.8109 24.6892L26.6989 24.9126C26.637 25.036 26.6737 25.1937 26.7809 25.265Z" fill="#0F3057"/>
<path d="M4.61446 10.5396L2.67339 9.24993C2.56619 9.1787 2.52946 9.02095 2.59135 8.89758L2.70342 8.67421C2.76531 8.55084 2.90239 8.50857 3.0096 8.5798L4.95066 9.86947C5.05787 9.94069 5.0946 10.0984 5.0327 10.2218L4.92064 10.4452C4.85874 10.5686 4.72166 10.6108 4.61446 10.5396Z" fill="#0F3057"/>
</svg>
