<svg xmlns="http://www.w3.org/2000/svg" viewBox="0 0 45.27 45.53">
  <defs>
    <style>
      .f9ad915d-0064-48cb-a41e-ae570ec79246 {
        fill: #49444a;
      }

      .e11769cd-5241-466c-906f-4e470bcbf2ad {
        fill: none;
        stroke: #f6eeee;
        stroke-miterlimit: 10;
        stroke-width: 2px;
      }

      .aea51a7b-f195-4d48-83dd-0b57e3c6640f {
        fill: #ed7674;
      }

      .b42db2ee-c951-4db1-8ee5-28ce88ec4c81 {
        fill: #4a454a;
      }
    </style>
  </defs>
  <g id="fbd56c62-517c-49fc-acb4-5dc822af287e" data-name="Layer 2">
    <g id="af9aaf26-efef-4434-806e-47ac9ae5f734" data-name="Layer 1">
      <circle class="f9ad915d-0064-48cb-a41e-ae570ec79246" cx="22.5" cy="23.03" r="22.5"/>
      <g id="ac87c9bf-0316-45fe-b90a-946e9ea2a527" data-name="bell">
        <path class="e11769cd-5241-466c-906f-4e470bcbf2ad" d="M25.47,5.82a12.21,12.21,0,0,0-5.21,0,12,12,0,0,0-4.72,2.18,12.21,12.21,0,0,0-3.42,3.87,12.79,12.79,0,0,0-1.57,4.92L10,22.32a18.87,18.87,0,0,1-1.54,5.8L6.55,32.37l1,1.76L16.3,35a5,5,0,0,0,4.48,5.46A5,5,0,0,0,26.24,36l8.72.86,1.35-1.52-1-4.55a19.26,19.26,0,0,1-.37-6l.49-5"/>
        <line class="e11769cd-5241-466c-906f-4e470bcbf2ad" x1="26.24" y1="35.98" x2="16.3" y2="34.99"/>
      </g>
      <g id="fd1f268e-b5db-4a60-bc4e-b061dca9b04a" data-name="banner">
        <circle class="aea51a7b-f195-4d48-83dd-0b57e3c6640f" cx="36.27" cy="9" r="9"/>
        <g>
          <path class="b42db2ee-c951-4db1-8ee5-28ce88ec4c81" d="M34.2,8.15v.17a.8.8,0,0,1-.41.33,1.75,1.75,0,0,1-.64.11,1.86,1.86,0,0,1-1-.26,1.8,1.8,0,0,1-.66-.73,2.5,2.5,0,0,1-.23-1.09h0a2.47,2.47,0,0,1,.26-1.17,1.68,1.68,0,0,1,.74-.75,2.67,2.67,0,0,1,1.18-.25,2.52,2.52,0,0,1,1.17.26,1.73,1.73,0,0,1,.74.75,2.58,2.58,0,0,1,.25,1.19h0a3.46,3.46,0,0,1-.1.82,4.85,4.85,0,0,1-.31.85l-.06.13c0,.05,0,.09-.07.13l-1.66,3H32.24Zm0-.62a1.28,1.28,0,0,0,.28-.89h0a1.2,1.2,0,0,0-.28-.86,1.17,1.17,0,0,0-1.59,0,1.22,1.22,0,0,0-.29.87h0a1.3,1.3,0,0,0,.29.9,1,1,0,0,0,.8.31A1,1,0,0,0,34.25,7.53Z"/>
          <path class="b42db2ee-c951-4db1-8ee5-28ce88ec4c81" d="M39.83,8.15v.17a.78.78,0,0,1-.4.33,1.75,1.75,0,0,1-.64.11,1.86,1.86,0,0,1-1-.26,1.8,1.8,0,0,1-.66-.73,2.5,2.5,0,0,1-.23-1.09h0a2.59,2.59,0,0,1,.25-1.17,1.7,1.7,0,0,1,.75-.75,2.66,2.66,0,0,1,1.17-.25,2.54,2.54,0,0,1,1.18.26,1.73,1.73,0,0,1,.74.75,2.58,2.58,0,0,1,.25,1.19h0a3.46,3.46,0,0,1-.1.82,5.82,5.82,0,0,1-.31.85l-.06.13-.07.13-1.66,3H37.87Zm.05-.62a1.28,1.28,0,0,0,.28-.89h0a1.2,1.2,0,0,0-.28-.86,1,1,0,0,0-.8-.31,1,1,0,0,0-.8.31,1.26,1.26,0,0,0-.28.87h0a1.35,1.35,0,0,0,.28.9,1.17,1.17,0,0,0,1.6,0Z"/>
        </g>
      </g>
    </g>
  </g>
</svg>
