<svg width="55" height="55" viewBox="0 0 55 55" fill="none" xmlns="http://www.w3.org/2000/svg">
<g id="notif-btn-inactive">
<rect id="bg" width="55" height="55" rx="27.5" fill="#14437D"/>
<path id="bell" d="M40.4425 33.9321C39.81 32.012 39.4869 30.0036 39.485 27.9821V22.9871C39.531 19.822 38.4015 16.7524 36.315 14.3721C34.2356 11.988 31.3496 10.4551 28.21 10.0671C26.475 9.88708 24.71 10.0671 23.035 10.6346C21.36 11.1721 19.835 12.0696 18.55 13.2671C17.2586 14.4337 16.2293 15.8609 15.53 17.4546C14.8272 19.0476 14.4604 20.7684 14.4525 22.5096V28.0096C14.4488 30.0228 14.1256 32.0227 13.495 33.9346L12 38.3571L13.1975 40.0021H21.96C21.96 41.3171 22.4975 42.6021 23.425 43.5321C24.35 44.4571 25.6375 44.9971 26.955 44.9971C28.27 44.9971 29.555 44.4596 30.4825 43.5321C31.41 42.6046 31.95 41.3171 31.95 40.0021H40.7125L41.9075 38.3571L40.4425 33.9321ZM28.7175 41.7996C28.4875 42.0342 28.2134 42.221 27.9109 42.3493C27.6084 42.4776 27.2835 42.5448 26.955 42.5471C26.6258 42.5448 26.3004 42.4773 25.9975 42.3486C25.6945 42.2199 25.4201 42.0324 25.19 41.7971C24.9549 41.5673 24.7676 41.2932 24.6389 40.9907C24.5102 40.6883 24.4426 40.3633 24.44 40.0346H29.4375C29.4479 40.3626 29.3894 40.6891 29.2659 40.9931C29.1423 41.2972 28.9563 41.5719 28.72 41.7996H28.7175ZM14.93 37.5246L15.8575 34.7396C16.5808 32.5699 16.9546 30.2991 16.965 28.0121V22.5096C16.965 21.1021 17.265 19.7271 17.8325 18.4696C18.4 17.1846 19.2075 16.0471 20.255 15.1196C21.3025 14.1646 22.53 13.4446 23.845 13.0271C25.19 12.5771 26.595 12.4271 27.97 12.5771C30.49 12.9084 32.8005 14.154 34.4625 16.0771C36.1249 18.0026 37.0187 20.4736 36.9725 23.0171V28.0421C36.9725 30.3146 37.3325 32.5871 38.08 34.7696L39.0075 37.5521H14.9325V37.5221L14.93 37.5246Z" fill="#FAFAF8"/>
</g>
</svg>
