<svg width="40" height="37" viewBox="0 0 40 37" fill="none" xmlns="http://www.w3.org/2000/svg">
<path fill-rule="evenodd" clip-rule="evenodd" d="M3 18.5496C3.7775 18.8856 4.1175 19.1064 5 19.2H8.75H18.75H23.75H31.25H35C35.8633 19.1096 36.5272 18.9652 37.3206 18.6263V30.0613C37.3206 33.38 34.6264 36.0684 31.3076 36.0612L8.98702 36.013C5.67839 36.0058 3 33.3216 3 30.013V18.5496ZM17.5 33.6H10V22.6C10 22.0477 10.4477 21.6 11 21.6H16.5C17.0523 21.6 17.5 22.0477 17.5 22.6V33.6ZM26 28.8C25.4477 28.8 25 28.3523 25 27.8V22.6C25 22.0477 25.4477 21.6 26 21.6H29C29.5523 21.6 30 22.0477 30 22.6V27.8C30 28.3523 29.5523 28.8 29 28.8H26Z" fill="#0F3057"/>
<path fill-rule="evenodd" clip-rule="evenodd" d="M40 11.25C40.0001 12.4874 39.6136 13.694 38.8945 14.7011C38.1754 15.7081 37.1597 16.4653 35.9892 16.8669C34.8187 17.2684 33.552 17.2942 32.3662 16.9407C31.1803 16.5871 30.1345 15.8719 29.375 14.895C28.8204 15.6094 28.1096 16.1874 27.2971 16.5848C26.4846 16.9822 25.592 17.1883 24.6875 17.1875C23.783 17.1885 22.8903 16.9824 22.0778 16.5851C21.2653 16.1877 20.5545 15.6096 20 14.895C19.4455 15.6096 18.7347 16.1877 17.9222 16.5851C17.1097 16.9824 16.217 17.1885 15.3125 17.1875C14.408 17.1885 13.5153 16.9824 12.7028 16.5851C11.8903 16.1877 11.1795 15.6096 10.625 14.895C9.86548 15.8719 8.81971 16.5871 7.63384 16.9407C6.44798 17.2942 5.18129 17.2684 4.01081 16.8669C2.84033 16.4653 1.82456 15.7081 1.10546 14.7011C0.386355 13.694 -0.000136496 12.4874 3.61614e-08 11.25L0 10.488C3.14827e-05 9.62883 0.320142 8.798 0.9025 8.1456L7.8025 0.4176L7.8 0.42C7.91736 0.288281 8.06305 0.182533 8.22704 0.110029C8.39104 0.0375257 8.56945 -1.13982e-05 8.75 2.59615e-09H31.25C31.4306 -1.13982e-05 31.609 0.0375257 31.773 0.110029C31.937 0.182533 32.0826 0.288281 32.2 0.42L39.0975 8.1456C39.6799 8.798 40 9.62883 40 10.488V11.25ZM9.375 11.25C9.375 13.1475 7.8375 14.6875 5.9375 14.6875C4.04 14.6875 2.5 13.15 2.5 11.25V10.488C2.49998 10.202 2.60637 9.92537 2.8 9.708L9.0268 2.73398C9.21653 2.52149 9.48787 2.4 9.77274 2.4H30.2273C30.5121 2.4 30.7835 2.52149 30.9732 2.73398L37.2 9.708C37.3936 9.92537 37.5 10.202 37.5 10.488V11.25C37.5 12.1617 37.1378 13.036 36.4932 13.6807C35.8485 14.3253 34.9742 14.6875 34.0625 14.6875C33.1508 14.6875 32.2765 14.3253 31.6318 13.6807C30.9872 13.036 30.625 12.1617 30.625 11.25C30.625 10.9185 30.4933 10.6005 30.2589 10.3661C30.0245 10.1317 29.7065 10 29.375 10C29.0435 10 28.7255 10.1317 28.4911 10.3661C28.2567 10.6005 28.125 10.9185 28.125 11.25C28.125 12.1617 27.7628 13.036 27.1182 13.6807C26.4735 14.3253 25.5992 14.6875 24.6875 14.6875C23.7758 14.6875 22.9015 14.3253 22.2568 13.6807C21.6122 13.036 21.25 12.1617 21.25 11.25C21.25 10.9185 21.1183 10.6005 20.8839 10.3661C20.6495 10.1317 20.3315 10 20 10C19.6685 10 19.3505 10.1317 19.1161 10.3661C18.8817 10.6005 18.75 10.9185 18.75 11.25C18.75 12.1617 18.3878 13.036 17.7432 13.6807C17.0985 14.3253 16.2242 14.6875 15.3125 14.6875C14.4008 14.6875 13.5265 14.3253 12.8818 13.6807C12.2372 13.036 11.875 12.1617 11.875 11.25C11.875 10.9185 11.7433 10.6005 11.5089 10.3661C11.2745 10.1317 10.9565 10 10.625 10C10.2935 10 9.97554 10.1317 9.74112 10.3661C9.5067 10.6005 9.375 10.9185 9.375 11.25Z" fill="#0F3057"/>
</svg>
